# xmcd
#
# Track frame offsets:
#	150
#	7855
#	15210
#	29080
#	38552
#	49157
#	63287
#	76985
#	85445
#	92067
#	99092
#	112107
#	118777
#	129220
#	137552
#	146225
#	159462
#	171657
#	185067
#	195782
#	204325
#	215737
#	225555
#	233817
#	246092
#	261005
#	270552
#	282330
#	296862
#	306082
#
# Disc length: 4211 seconds
#
# Revision: 1
# Processed by: cddbd v1.5.1PL0 Copyright (c) Steve Scherf et al.
# Submitted via: CDex 1.50Beta5
#
DISCID=a510711e
DTITLE=明田川荘之 - 世界のメロディー・ベスト30(オカリナ)
DYEAR=1900
DGENRE=
TTITLE0=ドレミの歌
TTITLE1=埴生の宿
TTITLE2=野ばら
TTITLE3=エーデルワイス
TTITLE4=スワニーリバー
TTITLE5=ドナドナ
TTITLE6=エデンの東
TTITLE7=ハッピーバースデー
TTITLE8=山の音楽家
TTITLE9=線路は続くよどこまでも
TTITLE10=大きな古時計
TTITLE11=故郷の空
TTITLE12=アニーローリー
TTITLE13=花はどこに行った
TTITLE14=ケセラセラ
TTITLE15=虹の彼方に
TTITLE16=アンドアイラブハー
TTITLE17=コンドルは飛んでゆく
TTITLE18=きよしこの夜
TTITLE19=おお牧場は緑
TTITLE20=イエスタディー
TTITLE21=サウンドオブサイレンス
TTITLE22=恋は水色
TTITLE23=歌の翼に
TTITLE24=この世の果てまで
TTITLE25=オーソレミオ
TTITLE26=サントワマミー
TTITLE27=枯葉
TTITLE28=オリーブの首飾り
TTITLE29=明るい表通りで
EXTD=
EXTT0=
EXTT1=
EXTT2=
EXTT3=
EXTT4=
EXTT5=
EXTT6=
EXTT7=
EXTT8=
EXTT9=
EXTT10=
EXTT11=
EXTT12=
EXTT13=
EXTT14=
EXTT15=
EXTT16=
EXTT17=
EXTT18=
EXTT19=
EXTT20=
EXTT21=
EXTT22=
EXTT23=
EXTT24=
EXTT25=
EXTT26=
EXTT27=
EXTT28=
EXTT29=
PLAYORDER=
